<svg version="1.1" viewBox="0.0 0.0 566.9291338582677 566.9291338582677" fill="none" stroke="none" stroke-linecap="square" stroke-miterlimit="10" xmlns:xlink="http://www.w3.org/1999/xlink" xmlns="http://www.w3.org/2000/svg"><clipPath id="p.0"><path d="m0 0l566.92914 0l0 566.92914l-566.92914 0l0 -566.92914z" clip-rule="nonzero"/></clipPath><g clip-path="url(#p.0)"><path fill="#000000" fill-opacity="0.0" d="m0 0l566.92914 0l0 566.92914l-566.92914 0z" fill-rule="evenodd"/><defs><linearGradient id="p.1" gradientUnits="userSpaceOnUse" gradientTransform="matrix(23.810057126891103 0.0 0.0 23.810057126891103 0.0 0.0)" spreadMethod="pad" x1="-3.4657460462550726E-4" y1="1.730735395010255E-4" x2="-4.3276676118021473E-4" y2="23.810230200274596"><stop offset="0.0" stop-color="#642b73"/><stop offset="1.0" stop-color="#c6426e"/></linearGradient></defs><path fill="url(#p.1)" d="m-0.008251969 94.494194l0 0c0 -52.18429 42.303726 -94.48802 94.48802 -94.48802l377.9696 0l0 0c25.059784 0 49.09317 9.95496 66.81314 27.6749c17.71991 17.719942 27.674866 41.753334 27.674866 66.81312l0 377.94073c0 52.184326 -42.30371 94.48804 -94.48801 94.48804l-377.9696 0c-52.18429 0 -94.48802 -42.30371 -94.48802 -94.48804z" fill-rule="evenodd"/><path fill="#ffffff" d="m70.73324 491.75412l106.3644 -167.47931l106.364426 167.47931z" fill-rule="evenodd"/><path stroke="#ffffff" stroke-width="16.0" stroke-linejoin="round" stroke-linecap="round" d="m70.73324 491.75412l106.3644 -167.47931l106.364426 167.47931z" fill-rule="evenodd"/><path fill="#ffffff" d="m283.46707 491.74786l105.12845 -227.44385l107.60037 227.44385z" fill-rule="evenodd"/><path stroke="#ffffff" stroke-width="16.0" stroke-linejoin="round" stroke-linecap="butt" d="m283.46707 491.74786l105.12845 -227.44385l107.60037 227.44385z" fill-rule="evenodd"/></g></svg>